<svg xmlns="http://www.w3.org/2000/svg" viewBox="0 0 512 512">
  <!-- Background -->
  <rect width="512" height="512" rx="115" fill="#1a1a1a"/>
  
  <!-- Sound wave bars (main logo) -->
  <rect x="96" y="220" width="28" height="72" rx="14" fill="#808080" opacity="0.7"/>
  <rect x="140" y="180" width="28" height="152" rx="14" fill="#909090" opacity="0.85"/>
  <rect x="184" y="140" width="28" height="232" rx="14" fill="#a0a0a0"/>
  <rect x="242" y="100" width="28" height="312" rx="14" fill="#b0b0b0"/>
  <rect x="300" y="140" width="28" height="232" rx="14" fill="#a0a0a0"/>
  <rect x="344" y="180" width="28" height="152" rx="14" fill="#909090" opacity="0.85"/>
  <rect x="388" y="220" width="28" height="72" rx="14" fill="#808080" opacity="0.7"/>
  
  <!-- Heavy blush -->
  <ellipse cx="130" cy="380" rx="45" ry="30" fill="#ff6b6b" opacity="0.5"/>
  <ellipse cx="382" cy="380" rx="45" ry="30" fill="#ff6b6b" opacity="0.5"/>
  
  <!-- Shy eyes (>.<) -->
  <path d="M 140 420 L 175 450 L 140 480" stroke="#ffffff" stroke-width="8" fill="none" stroke-linecap="round" stroke-linejoin="round"/>
  <path d="M 372 420 L 337 450 L 372 480" stroke="#ffffff" stroke-width="8" fill="none" stroke-linecap="round" stroke-linejoin="round"/>
  
  <!-- Sweat drop -->
  <ellipse cx="420" cy="150" rx="15" ry="25" fill="#87ceeb" opacity="0.8"/>
</svg>
