<svg viewBox="0 0 24 24" xmlns="http://www.w3.org/2000/svg">
  <path d="M11.56 8.87V17h8.76c1.85 0 3.35-1.51 3.35-3.38 0-1.87-1.5-3.38-3.35-3.38-.19 0-.38.02-.57.05-.3-2.29-2.24-4.07-4.6-4.07-1.63 0-3.07.85-3.89 2.13-.06-.01-.12-.01-.18-.01-1.95 0-3.52 1.58-3.52 3.53v.01zm-1.12-.01c0-2.56 2.07-4.64 4.64-4.64.1 0 .2 0 .3.01C16.29 2.88 17.94 2 19.75 2c2.95 0 5.35 2.4 5.35 5.35 0 .35-.03.69-.1 1.02 1.73.63 2.97 2.29 2.97 4.25 0 2.49-2.01 4.5-4.5 4.5H10.44V8.86zM1.12 11.5c-.05 0-.09.04-.09.09l-.21 1.94.21 1.89c.01.05.04.09.09.09.04 0 .08-.04.09-.09l.23-1.89-.23-1.94c-.01-.05-.05-.09-.09-.09zm-.81.74c-.05 0-.08.03-.09.08L0 13.53l.22 1.18c.01.05.04.08.08.08.05 0 .08-.03.09-.08l.17-1.18-.17-1.21c-.01-.05-.04-.08-.09-.08zm1.64-1.1c-.05 0-.1.04-.11.09l-.19 2.3.2 2.21c0 .05.05.09.1.09.06 0 .1-.04.11-.09l.2-2.21-.2-2.3c-.01-.05-.05-.09-.11-.09zm.86-.32c-.06 0-.12.05-.12.12l-.17 2.53.17 2.31c0 .07.06.12.12.12.07 0 .12-.05.13-.12l.2-2.31-.2-2.53c-.01-.07-.06-.12-.13-.12zm.86-.08c-.07 0-.13.06-.14.13l-.15 2.53.15 2.3c.01.07.07.13.14.13.07 0 .13-.06.14-.13l.17-2.3-.17-2.53c-.01-.07-.07-.13-.14-.13zm.87-.17c-.08 0-.14.06-.15.14l-.14 2.62.14 2.28c.01.08.07.14.15.14.08 0 .14-.06.15-.14l.16-2.28-.16-2.62c-.01-.08-.07-.14-.15-.14zm.87-.07c-.08 0-.15.07-.16.15l-.12 2.62.12 2.25c.01.08.08.15.16.15.09 0 .15-.07.16-.15l.14-2.25-.14-2.62c-.01-.08-.07-.15-.16-.15zm.87.13c-.09 0-.16.07-.17.16l-.11 2.42.11 2.2c.01.09.08.16.17.16.09 0 .16-.07.17-.16l.13-2.2-.13-2.42c-.01-.09-.08-.16-.17-.16zm.87-.26c-.09 0-.17.08-.18.17l-.1 2.51.1 2.15c.01.09.09.17.18.17.1 0 .17-.08.18-.17l.11-2.15-.11-2.51c-.01-.09-.08-.17-.18-.17zm.87-.08c-.1 0-.18.08-.19.18l-.08 2.42.08 2.1c.01.1.09.18.19.18.1 0 .18-.08.19-.18l.1-2.1-.1-2.42c-.01-.1-.09-.18-.19-.18z" fill="#FF5500"/>
</svg>